<svg xmlns="http://www.w3.org/2000/svg" viewBox="0 0 1200 800"><defs><linearGradient id="b" x1="0" y1="0" x2="1" y2="1"><stop stop-color="#00c2ff"/><stop offset=".55" stop-color="#635bff"/><stop offset="1" stop-color="#ff4f9a"/></linearGradient></defs><rect width="1200" height="800" rx="56" fill="#071b44"/><g opacity=".25" stroke="#fff"><path d="M0 130H1200M0 260H1200M0 390H1200M0 520H1200M0 650H1200"/><path d="M150 0V800M300 0V800M450 0V800M600 0V800M750 0V800M900 0V800M1050 0V800"/></g><g fill="url(#b)"><rect x="120" y="470" width="110" height="210" rx="18"/><rect x="275" y="390" width="110" height="290" rx="18"/><rect x="430" y="300" width="110" height="380" rx="18"/><rect x="585" y="225" width="110" height="455" rx="18"/><rect x="740" y="150" width="110" height="530" rx="18"/><rect x="895" y="95" width="110" height="585" rx="18"/></g><path d="M120 430C300 420 380 300 510 315S720 210 820 190 960 120 1080 80" fill="none" stroke="#8cff5a" stroke-width="12"/><g font-family="Arial" fill="#fff"><text x="90" y="100" font-size="34" font-weight="700">DATA → CONTEXT → DECISION</text><text x="90" y="145" font-size="18" opacity=".7">MAKE INFORMATION USEFUL TO PEOPLE AND AI</text></g></svg>